<?xml version="1.0" encoding="utf-8"?>
<!-- Generator: Adobe Illustrator 25.3.0, SVG Export Plug-In . SVG Version: 6.00 Build 0)  -->
<svg version="1.1" id="Layer_1" xmlns="http://www.w3.org/2000/svg" xmlns:xlink="http://www.w3.org/1999/xlink" x="0px" y="0px"
	 viewBox="0 0 24 24" style="enable-background:new 0 0 24 24;" xml:space="preserve">
<style type="text/css">
	.st0{fill:none;}
	.st1{fill:#161616;}
</style>
<path class="st0" d="M0,0h24v24H0V0z"/>
<path class="st1" d="M4,10v10c0,1.1,0.9,2,2,2h12c1.1,0,2-0.9,2-2V10c0-1.1-0.9-2-2-2H9l0,0V6.2c0-1.6,1.2-3.1,2.9-3.2
	C13.6,2.9,15,4.3,15,6l0,0h2l0,0c0-3.1-2.8-5.5-6-4.9C8.6,1.6,7,3.8,7,6.2V8l0,0H6C4.9,8,4,8.9,4,10z M6,10h12l0,0v10l0,0H6l0,0V10
	L6,10z M14,15c0-1.1-0.9-2-2-2s-2,0.9-2,2s0.9,2,2,2S14,16.1,14,15z"/>
</svg>
