<?xml version="1.0" encoding="utf-8"?>
<!-- Generator: Adobe Illustrator 25.3.0, SVG Export Plug-In . SVG Version: 6.00 Build 0)  -->
<svg version="1.1" id="Layer_1" xmlns="http://www.w3.org/2000/svg" xmlns:xlink="http://www.w3.org/1999/xlink" x="0px" y="0px"
	 viewBox="0 0 24 24" style="enable-background:new 0 0 24 24;" xml:space="preserve">
<style type="text/css">
	.st0{fill:none;}
	.st1{fill:#015C8F;}
</style>
<g>
	<rect class="st0" width="24" height="24"/>
</g>
<g>
	<path class="st1" d="M20,9V6h-2v3h-3v2h3v3h2v-3h3V9H20z M9,12c2.2,0,4-1.8,4-4s-1.8-4-4-4S5,5.8,5,8S6.8,12,9,12z M9,6
		c1.1,0,2,0.9,2,2s-0.9,2-2,2S7,9.1,7,8S7.9,6,9,6z M15.4,14.6C13.7,13.7,11.5,13,9,13s-4.7,0.7-6.4,1.6c-1,0.5-1.6,1.5-1.6,2.7V20
		h16v-2.8C17,16.1,16.4,15.1,15.4,14.6z M15,18H3v-0.8c0-0.4,0.2-0.7,0.5-0.9C4.7,15.7,6.6,15,9,15s4.3,0.7,5.5,1.3
		c0.3,0.2,0.5,0.5,0.5,0.9V18z"/>
</g>
</svg>
