<?xml version="1.0" encoding="utf-8"?>
<!-- Generator: Adobe Illustrator 25.3.0, SVG Export Plug-In . SVG Version: 6.00 Build 0)  -->
<svg version="1.1" id="Layer_1" xmlns="http://www.w3.org/2000/svg" xmlns:xlink="http://www.w3.org/1999/xlink" x="0px" y="0px"
	 viewBox="0 0 24 24" style="enable-background:new 0 0 24 24;" xml:space="preserve">
<style type="text/css">
	.st0{fill:#F18B12;}
	.st1{opacity:0.2;fill:#F18B12;enable-background:new    ;}
</style>
<g>
	<path class="st0" d="M20.8,19.7H3.2c-0.2,0-0.4-0.2-0.4-0.4c0-0.2,0.2-0.4,0.4-0.4h17.5c0.2,0,0.4,0.2,0.4,0.4
		C21.1,19.5,21,19.7,20.8,19.7z"/>
	<path class="st0" d="M21.1,6.2c-0.2-0.5-0.6-0.9-1.4-1.1c-0.5-0.2-1-0.2-1-0.2c-0.1,0-0.1,0-0.2,0L7.5,9.5l-1.9-1
		c-0.1,0-0.2-0.1-0.3,0L3.1,9.4C3,9.4,2.9,9.6,2.9,9.7c0,0.2,0,0.3,0.1,0.4l4.3,4c0.1,0.1,0.2,0.1,0.2,0.1c0,0,0.1,0,0.1,0l12.2-5.1
		C20,9.1,20,9.1,20.1,9c0,0,0.3-0.4,0.6-0.9C21.1,7.3,21.2,6.7,21.1,6.2z"/>
	<path class="st1" d="M21.1,6.2c-0.1-0.3-0.4-0.6-0.8-0.9c0.2,0.5,0,1.1-0.4,1.9c-0.3,0.5-0.6,0.9-0.6,0.9c0,0-0.1,0.1-0.1,0.1
		L6.9,13.4c0,0-0.1,0-0.1,0c-0.1,0-0.2,0-0.2-0.1L2.9,9.8c0,0.1,0.1,0.2,0.1,0.3l4.3,4c0.1,0.1,0.2,0.1,0.2,0.1c0,0,0.1,0,0.1,0
		l12.2-5.1C20,9.1,20,9.1,20.1,9c0,0,0.3-0.4,0.6-0.9C21.1,7.3,21.2,6.7,21.1,6.2z"/>
	<path class="st0" d="M16.4,7.8L8.5,4.3c-0.1,0-0.2,0-0.3,0L6,5.2C5.9,5.3,5.8,5.4,5.8,5.6c0,0.2,0,0.3,0.1,0.4l4.9,4.8
		c0.1,0.1,0.2,0.1,0.2,0.1c0,0,0.1,0,0.1,0l5.2-2.2c0.2-0.1,0.3-0.2,0.3-0.4S16.6,7.9,16.4,7.8z"/>
</g>
</svg>
