<?xml version="1.0" encoding="utf-8"?>
<!-- Generator: Adobe Illustrator 25.3.0, SVG Export Plug-In . SVG Version: 6.00 Build 0)  -->
<svg version="1.1" id="Layer_1" xmlns="http://www.w3.org/2000/svg" xmlns:xlink="http://www.w3.org/1999/xlink" x="0px" y="0px"
	 viewBox="0 0 1595.3 528.3" style="enable-background:new 0 0 1595.3 528.3;" xml:space="preserve">
<style type="text/css">
	.st0{fill:none;stroke:#FFFFFF;stroke-width:16;stroke-miterlimit:10;}
	.st1{fill:#FFFFFF;}
	.st2{enable-background:new    ;}
</style>
<g>
	<ellipse class="st0" cx="247.5" cy="264.2" rx="232" ry="234.5"/>
	<g>
		<path class="st1" d="M150.1,263.4c-0.1-4.6-13.9-6.2-13.8-9.4c0.2-4,21-6.3,38.4-7.9c43.3-4.1,37.1-1.7,56.6-4.3
			c16.5-2.2,38.1-0.6,61.5-0.6c0,0,11.6-0.1,44,1.4c13.3,0.6,23,1.2,34.2,6.4c6.8,3.1,19.9,9,20.3,18.4c0.3,9-11.4,16-12.6,16.7
			c-4.5,2.7-8.6,3.5-16.7,4.4c-20.2,2.4-30.7,2.4-30.7,2.4c-14.1,0-21.1-0.1-35.6-1.7c-34.1-3.5-117.6-7.5-150.1-8.7
			c0,0-17.4-0.6-17.6-4C127.7,272.7,150.3,269.2,150.1,263.4z"/>
		<path class="st1" d="M182.5,143"/>
		<path class="st1" d="M310.3,249.9c7.6-17.6-24.2-45.7-44-63.2c0,0-28.8-25.5-75.5-35.3c-3.8-0.8-10.2-2-11.9,0.7
			c-4.9,7.7,37.9,29.8,47.2,72.7c3,13.9-0.1,18.1,5.2,25.4C247.3,272.1,301.9,269.4,310.3,249.9z"/>
		<path class="st1" d="M310.3,281.4c7.6,18.4-24.2,47.7-44,66.1c0,0-28.8,26.6-75.5,36.9c-3.8,0.8-10.2,2.1-11.9-0.7
			c-4.9-8,37.9-31.1,47.2-75.9c3-14.6-0.1-18.9,5.2-26.5C247.3,258.3,301.9,261.1,310.3,281.4z"/>
		<path class="st1" d="M103.5,208c7.8,13.9,15.7,33.4,14.7,56.5c-1.5,32.4,20.2,47.8,31.7,23c2.5-5.3,10.8-25.5,1.2-47
			C142.8,222.1,124.5,209.7,103.5,208z"/>
		<path class="st1" d="M103.5,321c7.8-14.4,15.7-34.7,14.7-58.7c-1.5-33.6,20.2-49.7,31.7-23.9c2.5,5.5,10.8,26.5,1.2,48.8
			C142.8,306.4,124.5,319.2,103.5,321z"/>
	</g>
</g>
<g class="st2">
	<path class="st1" d="M950.8,228.3l27.4-35.7c8,11,15.6,16.4,24,16.4c10.6,0,16.4-7.1,16.4-20.7V125h-51.4V82.5H1069v102.4
		c0,45.7-21.8,68.1-62.5,68.1C983,253,963.4,244.5,950.8,228.3z"/>
	<path class="st1" d="M1091.1,174.2V82.5h51v90c0,25.5,8.9,35,23.1,35c14.3,0,23.1-9.5,23.1-35v-90h50.1v91.7
		c0,50-27.2,78.8-73.7,78.8C1118.3,253,1091.1,224.2,1091.1,174.2z"/>
	<path class="st1" d="M1361.7,220.2h-57.5l-10.2,29.1h-51.9l66.1-166.7h50.1l66.1,166.7h-52.7L1361.7,220.2z M1347.6,179.7
		l-14.7-41.9l-14.7,41.9L1347.6,179.7L1347.6,179.7z"/>
	<path class="st1" d="M1581.9,82.5v166.7H1540l-57.5-75.7v75.7h-49.7V82.5h41.9l57.5,75.7V82.5H1581.9z"/>
</g>
<g class="st2">
	<path class="st1" d="M519.9,368.1c0-51.2,35.7-87.2,84.3-87.2c29.6,0,53,11.9,67.9,33.3L639.9,346c-8.9-12.4-19.5-19.5-33.1-19.5
		c-21.2,0-35.4,16.2-35.4,41.7s14.3,41.7,35.4,41.7c13.6,0,24.2-7.1,33.1-19.5l32.2,31.7c-14.9,21.4-38.3,33.3-67.9,33.3
		C555.6,455.3,519.9,419.3,519.9,368.1z"/>
	<path class="st1" d="M787.7,422.4h-57.5L720,451.5h-51.9l66.1-166.7h50.1l66.1,166.7h-52.7L787.7,422.4z M773.6,382l-14.7-42
		l-14.7,42H773.6z"/>
	<path class="st1" d="M849.3,438.2l16.4-41c14.3,9.3,33.3,15.2,49.9,15.2c14.5,0,19.7-3.3,19.7-9c0-21-83.6-4-83.6-66.2
		c0-31,23.6-56.2,70.5-56.2c20.3,0,41.3,4.8,57.1,14.5L964,336.2c-14.9-8.3-29-12.4-42.1-12.4c-14.9,0-19.7,4.8-19.7,10.5
		c0,20,83.6,3.3,83.6,64.8c0,30.5-23.6,56.2-70.5,56.2C889.9,455.3,864.4,448.4,849.3,438.2z"/>
	<path class="st1" d="M1000.8,284.8h51v166.7h-51L1000.8,284.8L1000.8,284.8z"/>
	<path class="st1" d="M1179.5,422.4H1122l-10.2,29.1H1060l66.1-166.7h50.1l66.1,166.7h-52.7L1179.5,422.4z M1165.5,382l-14.7-41.9
		l-14.7,41.9H1165.5z"/>
	<path class="st1" d="M1399.7,284.8v166.7h-41.9l-57.5-75.7v75.7h-49.7V284.8h41.9l57.5,75.7v-75.7H1399.7z"/>
	<path class="st1" d="M1418.3,368.1c0-50.5,36.1-87.2,85.4-87.2s85.4,36.7,85.4,87.2s-36.1,87.2-85.4,87.2
		C1454.4,455.3,1418.3,418.6,1418.3,368.1z M1537.6,368.1c0-26-15.1-41.7-33.9-41.7s-33.9,15.7-33.9,41.7s15.1,41.7,33.9,41.7
		C1522.5,409.8,1537.6,394.1,1537.6,368.1z"/>
</g>
<g class="st2">
	<path class="st1" d="M656.4,159.3l25.5-68.8h9.5l27.2,68.8h-10l-7.8-20.8H673l-7.3,20.8H656.4z M675.6,131h22.5l-6.9-19
		c-2.1-5.8-3.7-10.5-4.7-14.3c-0.8,4.4-2,8.8-3.6,13.1L675.6,131z"/>
	<path class="st1" d="M725.8,159.3V90.5h48.1v8.1h-39.3v21.1h36.8v8.1h-36.8v23.4h40.8v8.1H725.8z"/>
	<path class="st1" d="M787.7,159.3V90.5h29.5c5.9,0,10.4,0.6,13.5,1.9c3.1,1.2,5.5,3.4,7.4,6.5c1.8,3.1,2.8,6.6,2.8,10.4
		c0,4.9-1.5,9-4.6,12.3s-7.8,5.5-14.1,6.4c2.3,1.2,4.1,2.3,5.3,3.4c2.6,2.4,5,5.5,7.3,9.1l11.6,18.7h-11.1l-8.8-14.3
		c-2.6-4.1-4.7-7.3-6.3-9.5c-1.7-2.2-3.2-3.7-4.5-4.6c-1.3-0.9-2.7-1.5-4-1.8c-1-0.2-2.6-0.3-4.9-0.3h-10.2v30.5h-8.9V159.3z
		 M796.5,120.9h18.9c4,0,7.2-0.4,9.4-1.3c2.3-0.9,4-2.2,5.2-4.1s1.8-3.9,1.8-6.2c0-3.3-1.1-5.9-3.4-8c-2.3-2.1-5.9-3.1-10.8-3.1h-21
		v22.7H796.5z"/>
	<path class="st1" d="M852,125.8c0-11.4,3-20.3,8.9-26.8s13.6-9.7,22.9-9.7c6.1,0,11.7,1.5,16.6,4.5c4.9,3,8.7,7.3,11.3,12.7
		c2.6,5.4,3.9,11.6,3.9,18.5c0,7-1.4,13.2-4.1,18.7c-2.7,5.5-6.6,9.7-11.6,12.5s-10.4,4.2-16.1,4.2c-6.3,0-11.9-1.6-16.8-4.7
		c-4.9-3.1-8.7-7.4-11.2-12.8C853.3,137.5,852,131.8,852,125.8z M861.1,125.9c0,8.3,2.2,14.8,6.5,19.6s9.7,7.2,16.2,7.2
		c6.6,0,12.1-2.4,16.3-7.2c4.3-4.8,6.4-11.6,6.4-20.5c0-5.6-0.9-10.5-2.7-14.7s-4.5-7.4-8-9.7c-3.5-2.3-7.5-3.4-11.9-3.4
		c-6.2,0-11.6,2.2-16.1,6.6C863.3,108.2,861.1,115.6,861.1,125.9z"/>
</g>
<g class="st2">
	<path class="st1" d="M543.9,245.9v-68.8H569c4.4,0,7.8,0.2,10.1,0.7c3.3,0.6,6,1.6,8.2,3.2c2.2,1.6,4,3.8,5.3,6.6s2,6,2,9.4
		c0,5.8-1.8,10.8-5.4,14.8c-3.6,4-10.1,6.1-19.5,6.1h-17.1v28H543.9z M552.7,209.8h17.2c5.7,0,9.7-1.1,12.1-3.3
		c2.4-2.2,3.6-5.3,3.6-9.2c0-2.9-0.7-5.3-2.1-7.4c-1.4-2-3.3-3.4-5.6-4.1c-1.5-0.4-4.2-0.6-8.2-0.6h-17V209.8z"/>
	<path class="st1" d="M649.5,177.1h8.8v39.7c0,6.9-0.8,12.4-2.3,16.5s-4.2,7.4-8.2,9.9c-3.9,2.5-9.1,3.8-15.5,3.8
		c-6.2,0-11.3-1.1-15.3-3.3s-6.8-5.4-8.5-9.6c-1.7-4.2-2.5-10-2.5-17.2v-39.7h8.8v39.7c0,6,0.5,10.4,1.6,13.2s2.9,5,5.5,6.5
		s5.8,2.3,9.6,2.3c6.5,0,11.1-1.5,13.8-4.5c2.8-3,4.1-8.9,4.1-17.5v-39.8H649.5z"/>
	<path class="st1" d="M673.1,245.9v-68.8h48.1v8.1h-39.3v21.1h36.8v8.1h-36.8v23.4h40.8v8.1L673.1,245.9L673.1,245.9z"/>
	<path class="st1" d="M735,245.9v-68.8h29.5c5.9,0,10.4,0.6,13.5,1.9c3.1,1.2,5.5,3.4,7.4,6.5c1.8,3.1,2.8,6.6,2.8,10.4
		c0,4.9-1.5,9-4.6,12.3s-7.8,5.5-14.1,6.4c2.3,1.2,4.1,2.3,5.3,3.4c2.6,2.4,5,5.5,7.3,9.1l11.6,18.7h-11.1l-8.8-14.3
		c-2.6-4.1-4.7-7.3-6.3-9.5c-1.7-2.2-3.2-3.7-4.5-4.6c-1.3-0.9-2.7-1.5-4-1.8c-1-0.2-2.6-0.3-4.9-0.3h-10.2v30.5H735V245.9z
		 M743.8,207.5h18.9c4,0,7.2-0.4,9.4-1.3c2.3-0.9,4-2.2,5.2-4.1c1.2-1.9,1.8-3.9,1.8-6.2c0-3.3-1.1-5.9-3.4-8
		c-2.3-2.1-5.9-3.1-10.8-3.1h-21v22.7H743.8z"/>
	<path class="st1" d="M817.2,245.9v-60.6h-21.9v-8.1H848v8.1h-22v60.6H817.2z"/>
	<path class="st1" d="M852.6,212.4c0-11.4,3-20.3,8.9-26.8s13.6-9.7,22.9-9.7c6.1,0,11.7,1.5,16.6,4.5c4.9,3,8.7,7.3,11.3,12.7
		s3.9,11.6,3.9,18.5c0,7-1.4,13.2-4.1,18.7c-2.7,5.5-6.6,9.7-11.6,12.5s-10.4,4.2-16.1,4.2c-6.3,0-11.9-1.6-16.8-4.7
		c-4.9-3.1-8.7-7.4-11.2-12.8C853.9,224.2,852.6,218.4,852.6,212.4z M861.7,212.5c0,8.3,2.2,14.8,6.5,19.6s9.7,7.2,16.2,7.2
		c6.6,0,12.1-2.4,16.3-7.2c4.3-4.8,6.4-11.6,6.4-20.5c0-5.6-0.9-10.5-2.7-14.7s-4.5-7.4-8-9.7s-7.5-3.4-11.9-3.4
		c-6.2,0-11.6,2.2-16.1,6.6C863.9,194.8,861.7,202.2,861.7,212.5z"/>
</g>
</svg>
