<?xml version="1.0" encoding="utf-8"?>
<!-- Generator: Adobe Illustrator 25.3.0, SVG Export Plug-In . SVG Version: 6.00 Build 0)  -->
<svg version="1.1" id="Layer_1" xmlns="http://www.w3.org/2000/svg" xmlns:xlink="http://www.w3.org/1999/xlink" x="0px" y="0px"
	 viewBox="0 0 24 24" style="enable-background:new 0 0 24 24;" xml:space="preserve">
<style type="text/css">
	.st0{fill:none;}
	.st1{fill:#58201D;}
</style>
<g>
	<rect class="st0" width="24" height="24"/>
</g>
<g>
	<path class="st1" d="M19,8.1L16.9,6l-1.4,1.4l2.1,2.1l-2.1,2.1l1.4,1.4l2.1-2.1l2.1,2.1l1.4-1.4l-2.1-2.1l2.1-2.1L21.1,6L19,8.1z
		 M9.5,12c2.2,0,4-1.8,4-4s-1.8-4-4-4s-4,1.8-4,4S7.3,12,9.5,12z M9.5,6c1.1,0,2,0.9,2,2s-0.9,2-2,2s-2-0.9-2-2S8.4,6,9.5,6z
		 M15.9,14.6C14.2,13.7,12,13,9.5,13s-4.7,0.7-6.4,1.6c-1,0.5-1.6,1.5-1.6,2.7V20h16v-2.8C17.5,16.1,16.9,15.1,15.9,14.6z M15.5,18
		h-12v-0.8c0-0.4,0.2-0.7,0.5-0.9C5.2,15.7,7.1,15,9.5,15s4.3,0.7,5.5,1.3c0.3,0.2,0.5,0.5,0.5,0.9V18z"/>
</g>
</svg>
