<?xml version="1.0" encoding="utf-8"?>
<!-- Generator: Adobe Illustrator 25.3.0, SVG Export Plug-In . SVG Version: 6.00 Build 0)  -->
<svg version="1.1" id="Layer_1" xmlns="http://www.w3.org/2000/svg" xmlns:xlink="http://www.w3.org/1999/xlink" x="0px" y="0px"
	 viewBox="0 0 1595.3 528.3" style="enable-background:new 0 0 1595.3 528.3;" xml:space="preserve">
<style type="text/css">
	.st0{fill:none;stroke:#000000;stroke-width:16;stroke-miterlimit:10;}
	.st1{fill:#020203;}
	.st2{font-family:'Montserrat-Black';}
	.st3{font-size:238.1486px;}
	.st4{font-family:'ArialMT';}
	.st5{font-size:96.0569px;}
</style>
<g>
	<ellipse class="st0" cx="247.5" cy="264.2" rx="232" ry="234.5"/>
	<g>
		<path d="M150.1,263.4c-0.1-4.6-13.9-6.2-13.8-9.4c0.2-4,21-6.3,38.4-7.9c43.3-4.1,37.1-1.7,56.6-4.3c16.5-2.2,38.1-0.6,61.5-0.6
			c0,0,11.6-0.1,44,1.4c13.3,0.6,23,1.2,34.2,6.4c6.8,3.1,19.9,9,20.3,18.4c0.3,9-11.4,16-12.6,16.7c-4.5,2.7-8.6,3.5-16.7,4.4
			c-20.2,2.4-30.7,2.4-30.7,2.4c-14.1,0-21.1-0.1-35.6-1.7c-34.1-3.5-117.6-7.5-150.1-8.7c0,0-17.4-0.6-17.6-4
			C127.7,272.7,150.3,269.2,150.1,263.4z"/>
		<path d="M182.5,143"/>
		<path d="M310.3,249.9c7.6-17.6-24.2-45.7-44-63.2c0,0-28.8-25.5-75.5-35.3c-3.8-0.8-10.2-2-11.9,0.7c-4.9,7.7,37.9,29.8,47.2,72.7
			c3,13.9-0.1,18.1,5.2,25.4C247.3,272.1,301.9,269.4,310.3,249.9z"/>
		<path d="M310.3,281.4c7.6,18.4-24.2,47.7-44,66.1c0,0-28.8,26.6-75.5,36.9c-3.8,0.8-10.2,2.1-11.9-0.7c-4.9-8,37.9-31.1,47.2-75.9
			c3-14.6-0.1-18.9,5.2-26.5C247.3,258.3,301.9,261.1,310.3,281.4z"/>
		<path d="M103.5,208c7.8,13.9,15.7,33.4,14.7,56.5c-1.5,32.4,20.2,47.8,31.7,23c2.5-5.3,10.8-25.5,1.2-47
			C142.8,222.1,124.5,209.7,103.5,208z"/>
		<path d="M103.5,321c7.8-14.4,15.7-34.7,14.7-58.7c-1.5-33.6,20.2-49.7,31.7-23.9c2.5,5.5,10.8,26.5,1.2,48.8
			C142.8,306.4,124.5,319.2,103.5,321z"/>
	</g>
</g>
<text transform="matrix(0.9075 0 0 1 956.0303 249.2192)" class="st1 st2 st3">JUAN</text>
<text transform="matrix(0.9075 0 0 1 513.6357 451.499)" class="st1 st2 st3">CASIANO</text>
<text transform="matrix(0.9669 0 0 1 656.542 159.2725)" class="st1 st4 st5">AERO</text>
<text transform="matrix(0.9669 0 0 1 536.71 245.8853)" class="st1 st4 st5">PUERTO</text>
</svg>
